<svg width="1680" height="30" viewBox="0 0 1680 30" xmlns="http://www.w3.org/2000/svg">
    <path d="M1662.72 15.1022L1681 0H1644.45L1662.72 15.1022Z"/>
    <path d="M1627.42 15.1022L1645.7 0H1609.15L1627.42 15.1022Z"/>
    <path d="M1591 15.1022L1609.28 0H1572.74L1591 15.1022Z"/>
    <path d="M1555.71 15.1022L1573.97 0H1537.43L1555.71 15.1022Z"/>
    <path d="M1519.29 15.1022L1537.56 0H1501.01L1519.29 15.1022Z"/>
    <path d="M1483.99 15.1022L1502.26 0H1465.71L1483.99 15.1022Z"/>
    <path d="M1447.58 15.1022L1465.84 0H1429.3L1447.58 15.1022Z"/>
    <path d="M1412.27 15.1022L1430.55 0H1394L1412.27 15.1022Z"/>
    <path d="M1376.22 15.1022L1394.5 0H1357.95L1376.22 15.1022Z"/>
    <path d="M1340.92 15.1022L1359.2 0H1322.65L1340.92 15.1022Z"/>
    <path d="M1304.5 15.1022L1322.78 0H1286.24L1304.5 15.1022Z"/>
    <path d="M1269.2 15.1022L1287.47 0H1250.93L1269.2 15.1022Z"/>
    <path d="M1232.79 15.1022L1251.06 0H1214.51L1232.79 15.1022Z"/>
    <path d="M1197.49 15.1022L1215.76 0H1179.21L1197.49 15.1022Z"/>
    <path d="M1161.07 15.1022L1179.34 0H1142.8L1161.07 15.1022Z"/>
    <path d="M1125.77 15.1022L1144.04 0H1107.5L1125.77 15.1022Z"/>
    <path d="M1090.1 15.1022L1108.37 0H1071.82L1090.1 15.1022Z"/>
    <path d="M1054.8 15.1022L1073.07 0H1036.52L1054.8 15.1022Z"/>
    <path d="M1018.37 15.1022L1036.65 0H1000.1L1018.37 15.1022Z"/>
    <path d="M983.071 15.1022L1001.35 0H964.796L983.071 15.1022Z"/>
    <path d="M946.661 15.1022L964.936 0H928.385L946.661 15.1022Z"/>
    <path d="M911.358 15.1022L929.634 0H893.083L911.358 15.1022Z"/>
    <path d="M874.936 15.1022L893.212 0H856.661L874.936 15.1022Z"/>
    <path d="M839.634 15.1022L857.91 0H821.359L839.634 15.1022Z"/>
    <path d="M803.597 15.1022L821.872 0H785.322L803.597 15.1022Z"/>
    <path d="M768.295 15.1022L786.57 0H750.02L768.295 15.1022Z"/>
    <path d="M731.873 15.1022L750.148 0H713.598L731.873 15.1022Z"/>
    <path d="M696.571 15.1022L714.846 0H678.295L696.571 15.1022Z"/>
    <path d="M660.16 15.1022L678.435 0H641.885L660.16 15.1022Z"/>
    <path d="M624.858 15.1022L643.133 0H606.583L624.858 15.1022Z"/>
    <path d="M588.436 15.1022L606.711 0H570.16L588.436 15.1022Z"/>
    <path d="M517.925 15.1022L536.201 0H499.65L517.925 15.1022Z"/>
    <path d="M482.623 15.1022L500.899 0H464.348L482.623 15.1022Z"/>
    <path d="M446.213 15.1022L464.488 0H427.937L446.213 15.1022Z"/>
    <path d="M410.911 15.1022L429.186 0H392.635L410.911 15.1022Z"/>
    <path d="M374.488 15.1022L392.764 0H356.213L374.488 15.1022Z"/>
    <path d="M339.186 15.1022L357.462 0H320.923L339.186 15.1022Z"/>
    <path d="M302.776 15.1022L321.051 0H284.5L302.776 15.1022Z"/>
    <path d="M267.474 15.1022L285.749 0H249.198L267.474 15.1022Z"/>
    <path d="M231.425 15.1022L249.7 0H213.149L231.425 15.1022Z"/>
    <path d="M196.123 15.1022L214.398 0H177.848L196.123 15.1022Z"/>
    <path d="M159.712 15.1022L177.988 0H141.437L159.712 15.1022Z"/>
    <path d="M124.41 15.1022L142.686 0H106.135L124.41 15.1022Z"/>
    <path d="M87.988 15.1022L106.263 0H69.7126L87.988 15.1022Z"/>
    <path d="M52.686 15.1022L70.9613 0H34.4106L52.686 15.1022Z"/>
    <path d="M16.2753 15.1022L34.5507 0H-2L16.2753 15.1022Z"/>
    <path d="M553.134 15.1022L571.409 0H534.858L553.134 15.1022Z"/>
    <path d="M1645.25 30L1663.53 14.8978H1626.98L1645.25 30Z"/>
    <path d="M1608.84 30L1627.12 14.8978H1590.57L1608.84 30Z"/>
    <path d="M1573.54 30L1591.82 14.8978H1555.27L1573.54 30Z"/>
    <path d="M1537.12 30L1555.39 14.8978H1518.84L1537.12 30Z"/>
    <path d="M1501.82 30L1520.09 14.8978H1483.55L1501.82 30Z"/>
    <path d="M1465.41 30L1483.68 14.8978H1447.13L1465.41 30Z"/>
    <path d="M1430.1 30L1448.38 14.8978H1411.83L1430.1 30Z"/>
    <path d="M1394.06 30L1412.33 14.8978H1375.78L1394.06 30Z"/>
    <path d="M1358.75 30L1377.03 14.8978H1340.48L1358.75 30Z"/>
    <path d="M1322.34 30L1340.62 14.8978H1304.07L1322.34 30Z"/>
    <path d="M1287.04 30L1305.32 14.8978H1268.77L1287.04 30Z"/>
    <path d="M1250.62 30L1268.89 14.8978H1232.34L1250.62 30Z"/>
    <path d="M1215.32 30L1233.59 14.8978H1197.04L1215.32 30Z"/>
    <path d="M1178.91 30L1197.18 14.8978H1160.63L1178.91 30Z"/>
    <path d="M1143.6 30L1161.88 14.8978H1125.33L1143.6 30Z"/>
    <path d="M1107.93 30L1126.2 14.8978H1089.65L1107.93 30Z"/>
    <path d="M1072.63 30L1090.9 14.8978H1054.35L1072.63 30Z"/>
    <path d="M1036.22 30L1054.49 14.8978H1017.94L1036.22 30Z"/>
    <path d="M1000.91 30L1019.19 14.8978H982.639L1000.91 30Z"/>
    <path d="M964.492 30L982.767 14.8978H946.217L964.492 30Z"/>
    <path d="M929.19 30L947.466 14.8978H910.915L929.19 30Z"/>
    <path d="M892.78 30L911.055 14.8978H874.504L892.78 30Z"/>
    <path d="M857.478 30L875.753 14.8978H839.203L857.478 30Z"/>
    <path d="M821.429 30L839.704 14.8978H803.153L821.429 30Z"/>
    <path d="M786.127 30L804.402 14.8978H767.852L786.127 30Z"/>
    <path d="M749.716 30L767.992 14.8978H731.441L749.716 30Z"/>
    <path d="M714.414 30L732.689 14.8978H696.139L714.414 30Z"/>
    <path d="M677.992 30L696.267 14.8978H659.717L677.992 30Z"/>
    <path d="M642.69 30L660.965 14.8978H624.415L642.69 30Z"/>
    <path d="M606.279 30L624.555 14.8978H588.004L606.279 30Z"/>
    <path d="M535.769 30L554.044 14.8978H517.493L535.769 30Z"/>
    <path d="M500.467 30L518.742 14.8978H482.191L500.467 30Z"/>
    <path d="M464.044 30L482.32 14.8978H445.769L464.044 30Z"/>
    <path d="M428.743 30L447.018 14.8978H410.467L428.743 30Z"/>
    <path d="M392.332 30L410.607 14.8978H374.056L392.332 30Z"/>
    <path d="M357.03 30L375.305 14.8978H338.755L357.03 30Z"/>
    <path d="M320.608 30L338.883 14.8978H302.332L320.608 30Z"/>
    <path d="M285.306 30L303.581 14.8978H267.03L285.306 30Z"/>
    <path d="M249.269 30L267.544 14.8978H230.993L249.269 30Z"/>
    <path d="M213.967 30L232.242 14.8978H195.691L213.967 30Z"/>
    <path d="M177.544 30L195.819 14.8978H159.269L177.544 30Z"/>
    <path d="M142.242 30L160.517 14.8978H123.967L142.242 30Z"/>
    <path d="M105.831 30L124.107 14.8978H87.5562L105.831 30Z"/>
    <path d="M70.5295 30L88.8048 14.8978H52.2542L70.5295 30Z"/>
    <path d="M34.1071 30L52.3825 14.8978H15.8318L34.1071 30Z"/>
    <path d="M570.977 30L589.253 14.8978H552.702L570.977 30Z"/>
    <defs>
        <rect width="1683" height="30" transform="translate(-2)"/>
    </defs>
</svg>
