<svg viewBox="0 1 785 22" xmlns="http://www.w3.org/2000/svg">
<path d="M775.265 10.6483L785.1 0.55957H765.43L775.265 10.6483Z" fill="#213565"/>
    <path d="M755.67 10.6483L765.499 0.55957H745.835L755.67 10.6483Z" fill="#213565"/>
    <path d="M736.672 10.6483L746.507 0.55957H726.837L736.672 10.6483Z" fill="#213565"/>
    <path d="M717.272 10.6483L727.107 0.55957H707.438L717.272 10.6483Z" fill="#213565"/>
    <path d="M698.274 10.6483L708.109 0.55957H688.439L698.274 10.6483Z" fill="#213565"/>
    <path d="M678.673 10.6483L688.508 0.55957H668.845L678.673 10.6483Z" fill="#213565"/>
    <path d="M659.676 10.6483L669.511 0.55957H649.847L659.676 10.6483Z" fill="#213565"/>
    <path d="M640.081 10.6483L649.916 0.55957H630.246L640.081 10.6483Z" fill="#213565"/>
    <path d="M621.083 10.6483L630.918 0.55957H611.248L621.083 10.6483Z" fill="#213565"/>
    <path d="M601.489 10.6483L611.317 0.55957H591.654L601.489 10.6483Z" fill="#213565"/>
    <path d="M582.491 10.6483L592.319 0.55957H572.656L582.491 10.6483Z" fill="#213565"/>
    <path d="M563.292 10.6483L573.127 0.55957H553.457L563.292 10.6483Z" fill="#213565"/>
    <path d="M544.294 10.6483L554.129 0.55957H534.459L544.294 10.6483Z" fill="#213565"/>
    <path d="M524.693 10.6483L534.528 0.55957H514.858L524.693 10.6483Z" fill="#213565"/>
    <path d="M505.695 10.6483L515.53 0.55957H495.86L505.695 10.6483Z" fill="#213565"/>
    <path d="M486.101 10.6483L495.936 0.55957H476.266L486.101 10.6483Z" fill="#213565"/>
    <path d="M467.103 10.6483L476.937 0.55957H457.268L467.103 10.6483Z" fill="#213565"/>
    <path d="M447.502 10.6483L457.337 0.55957H437.667L447.502 10.6483Z" fill="#213565"/>
    <path d="M428.504 10.6483L438.339 0.55957H418.669L428.504 10.6483Z" fill="#213565"/>
    <path d="M409.11 10.6483L418.945 0.55957H399.275L409.11 10.6483Z" fill="#213565"/>
    <path d="M390.112 10.6483L399.947 0.55957H380.277L390.112 10.6483Z" fill="#213565"/>
    <path d="M370.512 10.6483L380.347 0.55957H360.677L370.512 10.6483Z" fill="#213565"/>
    <path d="M351.514 10.6483L361.349 0.55957H341.679L351.514 10.6483Z" fill="#213565"/>
    <path d="M331.919 10.6483L341.754 0.55957H322.084L331.919 10.6483Z" fill="#213565"/>
    <path d="M312.921 10.6483L322.756 0.55957H303.086L312.921 10.6483Z" fill="#213565"/>
    <path d="M293.32 10.6483L303.155 0.55957H283.485L293.32 10.6483Z" fill="#213565"/>
    <path d="M255.375 10.6483L265.21 0.55957H245.54L255.375 10.6483Z" fill="#213565"/>
    <path d="M236.377 10.6483L246.212 0.55957H226.542L236.377 10.6483Z" fill="#213565"/>
    <path d="M216.782 10.6483L226.617 0.55957H206.947L216.782 10.6483Z" fill="#213565"/>
    <path d="M197.785 10.6483L207.62 0.55957H187.95L197.785 10.6483Z" fill="#213565"/>
    <path d="M178.184 10.6483L188.019 0.55957H168.349L178.184 10.6483Z" fill="#213565"/>
    <path d="M159.186 10.6483L169.021 0.55957H149.357L159.186 10.6483Z" fill="#213565"/>
    <path d="M139.591 10.6483L149.426 0.55957H129.756L139.591 10.6483Z" fill="#213565"/>
    <path d="M120.593 10.6483L130.428 0.55957H110.758L120.593 10.6483Z" fill="#213565"/>
    <path d="M101.193 10.6483L111.028 0.55957H91.3584L101.193 10.6483Z" fill="#213565"/>
    <path d="M82.1953 10.6483L92.0303 0.55957H72.3604L82.1953 10.6483Z" fill="#213565"/>
    <path d="M62.6011 10.6483L72.436 0.55957H52.7661L62.6011 10.6483Z" fill="#213565"/>
    <path d="M43.603 10.6483L53.438 0.55957H33.7681L43.603 10.6483Z" fill="#213565"/>
    <path d="M24.0019 10.6483L33.8369 0.55957H14.167L24.0019 10.6483Z" fill="#213565"/>
    <path d="M5.00439 10.6483L14.8393 0.55957H-4.83057L5.00439 10.6483Z" fill="#213565"/>
    <path d="M274.322 10.6483L284.157 0.55957H264.487L274.322 10.6483Z" fill="#213565"/>
    <path d="M765.267 20.6004L775.102 10.5117H755.432L765.267 20.6004Z" fill="#213565"/>
    <path d="M746.269 20.6004L756.103 10.5117H736.434L746.269 20.6004Z" fill="#213565"/>
    <path d="M726.869 20.6004L736.704 10.5117H717.034L726.869 20.6004Z" fill="#213565"/>
    <path d="M707.871 20.6004L717.706 10.5117H698.036L707.871 20.6004Z" fill="#213565"/>
    <path d="M688.276 20.6004L698.111 10.5117H678.441L688.276 20.6004Z" fill="#213565"/>
    <path d="M669.278 20.6004L679.113 10.5117H659.443L669.278 20.6004Z" fill="#213565"/>
    <path d="M649.678 20.6004L659.513 10.5117H639.843L649.678 20.6004Z" fill="#213565"/>
    <path d="M630.68 20.6004L640.515 10.5117H620.845L630.68 20.6004Z" fill="#213565"/>
    <path d="M611.085 20.6004L620.92 10.5117H601.25L611.085 20.6004Z" fill="#213565"/>
    <path d="M592.087 20.6004L601.922 10.5117H582.252L592.087 20.6004Z" fill="#213565"/>
    <path d="M572.888 20.6004L582.723 10.5117H563.053L572.888 20.6004Z" fill="#213565"/>
    <path d="M553.89 20.6004L563.725 10.5117H544.055L553.89 20.6004Z" fill="#213565"/>
    <path d="M534.296 20.6004L544.131 10.5117H524.461L534.296 20.6004Z" fill="#213565"/>
    <path d="M515.298 20.6004L525.133 10.5117H505.463L515.298 20.6004Z" fill="#213565"/>
    <path d="M495.697 20.6004L505.532 10.5117H485.862L495.697 20.6004Z" fill="#213565"/>
    <path d="M476.699 20.6004L486.534 10.5117H466.864L476.699 20.6004Z" fill="#213565"/>
    <path d="M457.104 20.6004L466.939 10.5117H447.27L457.104 20.6004Z" fill="#213565"/>
    <path d="M438.106 20.6004L447.941 10.5117H428.271L438.106 20.6004Z" fill="#213565"/>
    <path d="M418.707 20.6004L428.542 10.5117H408.872L418.707 20.6004Z" fill="#213565"/>
    <path d="M399.709 20.6004L409.544 10.5117H389.874L399.709 20.6004Z" fill="#213565"/>
    <path d="M380.114 20.6004L389.949 10.5117H370.279L380.114 20.6004Z" fill="#213565"/>
    <path d="M361.116 20.6004L370.951 10.5117H351.281L361.116 20.6004Z" fill="#213565"/>
    <path d="M341.516 20.6004L351.351 10.5117H331.681L341.516 20.6004Z" fill="#213565"/>
    <path d="M322.518 20.6004L332.353 10.5117H312.683L322.518 20.6004Z" fill="#213565"/>
    <path d="M302.923 20.6004L312.758 10.5117H293.088L302.923 20.6004Z" fill="#213565"/>
    <path d="M264.978 20.6004L274.812 10.5117H255.143L264.978 20.6004Z" fill="#213565"/>
    <path d="M245.979 20.6004L255.814 10.5117H236.145L245.979 20.6004Z" fill="#213565"/>
    <path d="M226.379 20.6004L236.214 10.5117H216.544L226.379 20.6004Z" fill="#213565"/>
    <path d="M207.381 20.6004L217.216 10.5117H197.546L207.381 20.6004Z" fill="#213565"/>
    <path d="M187.786 20.6004L197.621 10.5117H177.951L187.786 20.6004Z" fill="#213565"/>
    <path d="M168.788 20.6004L178.623 10.5117H158.953L168.788 20.6004Z" fill="#213565"/>
    <path d="M149.187 20.6004L159.022 10.5117H139.353L149.187 20.6004Z" fill="#213565"/>
    <path d="M130.189 20.6004L140.024 10.5117H120.354L130.189 20.6004Z" fill="#213565"/>
    <path d="M110.796 20.6004L120.631 10.5117H100.961L110.796 20.6004Z" fill="#213565"/>
    <path d="M91.7978 20.6004L101.633 10.5117H81.9629L91.7978 20.6004Z" fill="#213565"/>
    <path d="M72.1973 20.6004L82.0322 10.5117H62.3623L72.1973 20.6004Z" fill="#213565"/>
    <path d="M53.1992 20.6004L63.0342 10.5117H43.3643L53.1992 20.6004Z" fill="#213565"/>
    <path d="M33.6045 20.6004L43.4394 10.5117H23.7695L33.6045 20.6004Z" fill="#213565"/>
    <path d="M14.6069 20.6004L24.4419 10.5117H4.77197L14.6069 20.6004Z" fill="#213565"/>
    <path d="M-4.99414 20.6004L4.84081 10.5117H-14.8291L-4.99414 20.6004Z" fill="#213565"/>
    <path d="M283.925 20.6004L293.76 10.5117H274.09L283.925 20.6004Z" fill="#213565"/>
</svg>