<svg viewBox="0 0 172 72" fill="white" xmlns="http://www.w3.org/2000/svg">
<path d="M103.411 22.0803C103.411 19.4591 103.836 17.5739 104.699 16.4247C105.562 15.2755 106.953 14.7073 108.871 14.7073C110.558 14.7073 111.743 15.2367 112.4 16.2826C113.057 17.3285 113.392 18.9168 113.392 21.0473V35.5997H120.449V19.7432C120.449 18.142 120.307 16.6958 120.024 15.3788C119.741 14.0617 119.251 12.9512 118.556 12.0344C117.86 11.1176 116.907 10.4075 115.697 9.89096C114.486 9.37446 112.941 9.11621 111.048 9.11621C109.554 9.11621 108.099 9.45194 106.669 10.1363C105.24 10.8207 104.081 11.9053 103.192 13.4032H103.038V9.81348H96.3281V35.5868H103.385V22.0803H103.411Z" fill="white"/>
<path d="M26.735 47.1693C26.735 45.7102 26.516 44.2898 26.0653 42.934C25.6146 41.5653 24.9063 40.3644 23.9275 39.2927C22.9488 38.2339 21.6867 37.3687 20.1285 36.7231C18.5702 36.0775 16.6771 35.7547 14.4621 35.7547H0V71.3544H7.80413V58.5969H14.4621C16.6771 58.5969 18.5702 58.274 20.1285 57.6284C21.6867 56.9828 22.9488 56.1306 23.9275 55.0588C24.9063 54 25.6146 52.7733 26.0653 51.3917C26.516 50.01 26.735 48.6155 26.735 47.1822V47.1693ZM18.6089 49.9068C18.2225 50.604 17.7203 51.1464 17.0892 51.5208C16.4582 51.9082 15.7242 52.1664 14.9 52.2956C14.0758 52.4247 13.2129 52.4892 12.3115 52.4892H7.79125V41.8235H12.3115C13.2001 41.8235 14.0629 41.8881 14.9 42.0172C15.7242 42.1463 16.4582 42.4046 17.0892 42.792C17.7203 43.1793 18.2225 43.7088 18.6089 44.4189C18.9952 45.1162 19.1755 46.033 19.1755 47.1564C19.1755 48.2798 18.9823 49.1966 18.6089 49.8938V49.9068Z" fill="white"/>
<path d="M63.5663 45.2712C62.7421 45.5423 61.9565 45.9168 61.2354 46.3946C60.5013 46.8723 59.8574 47.4534 59.2908 48.1377C58.7241 48.8221 58.2734 49.5581 57.9514 50.3587H57.8484V45.5682H51.1389V71.3415H58.1961V59.7331C58.1961 58.571 58.312 57.4864 58.5438 56.4921C58.7756 55.4979 59.162 54.6198 59.7157 53.8709C60.2566 53.122 60.9778 52.528 61.8793 52.1019C62.7678 51.6758 63.8625 51.4562 65.1632 51.4562C65.5882 51.4562 66.0389 51.4821 66.5025 51.5337C66.9661 51.5854 67.3653 51.637 67.7002 51.7145V45.1291C67.1335 44.9613 66.6184 44.8838 66.1548 44.8838C65.2662 44.8838 64.4034 45.0129 63.5663 45.2841V45.2712Z" fill="white"/>
<path d="M124.969 34.7475C125.716 35.1736 126.579 35.4706 127.558 35.6126C128.536 35.7676 129.567 35.8321 130.661 35.8321C131.357 35.8321 132.065 35.8192 132.799 35.7805C133.533 35.7418 134.19 35.6772 134.782 35.5868V30.099C134.448 30.1636 134.1 30.2152 133.739 30.254C133.379 30.2927 132.992 30.3056 132.593 30.3056C131.395 30.3056 130.61 30.099 130.211 29.7116C129.811 29.3113 129.618 28.5108 129.618 27.3228V14.5653H134.795V9.8264H129.618V2.09183H122.561V29.7633C122.561 31.0545 122.78 32.1004 123.205 32.901C123.63 33.7016 124.222 34.3085 124.969 34.7475Z" fill="white"/>
<path d="M143.192 35.5997H146.604V30.8608H143.192V0H136.135V35.5997H141.44H143.192Z" fill="white"/>
<path d="M76.1353 37.8465H69.0781V65.5179C69.0781 66.8092 69.2971 67.8551 69.722 68.6557C70.147 69.4562 70.7394 70.0631 71.4863 70.5021C72.2333 70.9283 73.0961 71.2253 74.0748 71.3673C75.0536 71.5222 76.0838 71.5868 77.1785 71.5868C77.8739 71.5868 78.5822 71.5739 79.3162 71.5351C80.0503 71.4964 80.7071 71.4318 81.2995 71.3415V65.8537C80.9646 65.9182 80.6169 65.9699 80.2563 66.0086C79.8957 66.0473 79.5094 66.0603 79.1102 66.0603C77.9125 66.0603 77.1269 65.8537 76.7277 65.4663C76.3285 65.066 76.1353 64.2654 76.1353 63.0775V50.3199H81.3123V45.5811H76.1353V37.8594V37.8465Z" fill="white"/>
<path d="M105.24 47.7891C104.544 46.8723 103.591 46.1621 102.381 45.6456C101.17 45.1291 99.625 44.8709 97.7319 44.8709C96.238 44.8709 94.7828 45.2066 93.3533 45.891C91.9239 46.5753 90.7648 47.66 89.8762 49.1578H89.7217V45.5682H83.0122V71.3415H90.0694V57.835C90.0694 55.2138 90.4944 53.3286 91.3572 52.1793C92.2201 51.0301 93.6109 50.462 95.5297 50.462C97.2168 50.462 98.4015 50.9914 99.0583 52.0373C99.7151 53.0832 100.05 54.6715 100.05 56.802V71.3544H107.107V55.4979C107.107 53.8967 106.965 52.4505 106.682 51.1334C106.399 49.8164 105.909 48.7059 105.214 47.7891H105.24Z" fill="white"/>
<path d="M130.777 49.5581C129.734 48.1248 128.395 46.9885 126.772 46.1492C125.149 45.297 123.243 44.8709 121.054 44.8709C119.097 44.8709 117.32 45.2195 115.71 45.9168C114.1 46.6141 112.722 47.5696 111.563 48.7834C110.404 49.9971 109.503 51.4304 108.872 53.0961C108.24 54.7618 107.931 56.5567 107.931 58.4806C107.931 60.4046 108.24 62.3027 108.846 63.9684C109.464 65.6342 110.327 67.0545 111.46 68.2554C112.58 69.4562 113.958 70.373 115.581 71.0187C117.204 71.6643 119.032 71.9871 121.054 71.9871C123.965 71.9871 126.463 71.3286 128.511 69.9986C130.571 68.6686 132.091 66.4606 133.082 63.3745H126.862C126.63 64.175 125.999 64.924 124.969 65.6471C123.939 66.3573 122.715 66.7188 121.286 66.7188C119.303 66.7188 117.77 66.2023 116.714 65.1693C115.658 64.1363 115.079 62.4835 114.976 60.1851H133.52C133.649 58.1966 133.482 56.2855 133.018 54.4519C132.554 52.6184 131.795 50.9914 130.751 49.571L130.777 49.5581ZM115.001 55.6915C115.04 55.188 115.143 54.6327 115.323 54C115.504 53.3673 115.826 52.7733 116.264 52.2052C116.714 51.637 117.307 51.1722 118.054 50.7848C118.801 50.3974 119.741 50.2166 120.861 50.2166C122.587 50.2166 123.874 50.6815 124.712 51.6112C125.562 52.5409 126.141 53.9096 126.476 55.7045H114.989L115.001 55.6915Z" fill="white"/>
<path d="M171.305 60.056C170.841 59.2425 170.223 58.5581 169.463 58.0158C168.703 57.4606 167.827 57.0215 166.849 56.6987C165.87 56.363 164.865 56.0789 163.835 55.8465C162.844 55.6141 161.865 55.3946 160.899 55.2009C159.933 55.0072 159.083 54.7748 158.336 54.5294C157.589 54.2841 156.984 53.9613 156.52 53.561C156.057 53.1607 155.825 52.6442 155.825 52.0115C155.825 51.4821 155.954 51.056 156.224 50.7331C156.495 50.4232 156.817 50.1779 157.19 50.01C157.576 49.8422 157.989 49.7389 158.465 49.6872C158.929 49.6356 159.354 49.6098 159.753 49.6098C161.015 49.6098 162.11 49.8551 163.037 50.3329C163.964 50.8106 164.479 51.7403 164.582 53.0961H171.292C171.163 51.495 170.751 50.1779 170.068 49.132C169.386 48.0861 168.536 47.2468 167.506 46.6141C166.475 45.9814 165.316 45.5294 164.003 45.2712C162.689 45 161.337 44.8709 159.946 44.8709C158.555 44.8709 157.19 45 155.864 45.2453C154.537 45.4907 153.34 45.9297 152.284 46.5366C151.781 46.8207 151.331 47.1693 150.931 47.5567V45.1162C150.365 44.9484 149.85 44.8709 149.386 44.8709C148.497 44.8709 147.635 45 146.797 45.2712C145.973 45.5423 145.188 45.9168 144.467 46.3946C143.733 46.8723 143.089 47.4534 142.522 48.1377C141.955 48.8221 141.505 49.5581 141.183 50.3587H141.08V45.5682H134.37V71.3415H141.427V59.7331C141.427 58.571 141.543 57.4864 141.775 56.4921C142.007 55.4979 142.393 54.6198 142.947 53.8709C143.488 53.122 144.209 52.528 145.11 52.1019C145.999 51.6758 147.094 51.4562 148.394 51.4562C148.549 51.4562 148.716 51.4562 148.884 51.4692C148.794 51.9857 148.755 52.5538 148.755 53.1478C148.755 54.2841 148.987 55.2396 149.45 56.0144C149.914 56.802 150.532 57.4476 151.292 57.9641C152.052 58.4806 152.927 58.8938 153.906 59.2166C154.885 59.5265 155.889 59.8106 156.92 60.043C159.431 60.5725 161.401 61.1019 162.818 61.6442C164.222 62.1736 164.93 62.9742 164.93 64.033C164.93 64.6657 164.775 65.1822 164.479 65.6083C164.183 66.0344 163.809 66.3573 163.359 66.6026C162.908 66.8479 162.419 67.0287 161.865 67.1449C161.311 67.2611 160.796 67.3257 160.294 67.3257C159.598 67.3257 158.929 67.2482 158.285 67.0804C157.641 66.9125 157.061 66.6542 156.572 66.3056C156.07 65.957 155.671 65.505 155.349 64.9627C155.039 64.4075 154.872 63.7618 154.872 62.9871H148.163C148.227 64.7174 148.613 66.1507 149.334 67.2999C150.043 68.4491 150.957 69.3659 152.065 70.0631C153.172 70.7604 154.447 71.264 155.864 71.561C157.293 71.858 158.748 72.0129 160.242 72.0129C161.736 72.0129 163.14 71.8709 164.544 71.5868C165.947 71.3027 167.209 70.8121 168.304 70.1148C169.399 69.4175 170.287 68.5007 170.97 67.3515C171.652 66.2023 171.987 64.7819 171.987 63.0904C171.987 61.8895 171.755 60.8953 171.292 60.0689L171.305 60.056Z" fill="white"/>
<path d="M86.7342 19.0201C86.2705 19.4075 85.6395 19.6915 84.8411 19.8852C84.0426 20.0918 83.1283 20.2339 82.1109 20.3372C81.0807 20.4405 80.0375 20.5696 78.9815 20.7374C77.9255 20.9053 76.8695 21.1248 75.8264 21.4089C74.7833 21.693 73.8561 22.1191 73.0447 22.6872C72.2334 23.2554 71.5637 24.0043 71.0615 24.9598C70.5464 25.9024 70.2888 27.1162 70.2888 28.5753C70.2888 29.9053 70.5077 31.0545 70.9585 32.01C71.4092 32.9785 72.0274 33.7661 72.8258 34.3988C73.6242 35.0316 74.5515 35.4964 75.6075 35.7934C76.6635 36.0904 77.8096 36.2453 79.033 36.2453C80.6299 36.2453 82.1882 36.0129 83.7078 35.5481C85.2274 35.0832 86.5539 34.2697 87.6871 33.1076C87.7258 33.5466 87.7773 33.9598 87.8674 34.373C87.9447 34.7862 88.0606 35.1994 88.1894 35.5997H95.3496C95.0148 35.0703 94.783 34.2697 94.6542 33.2109C94.5254 32.1521 94.461 31.0287 94.461 29.8666V16.4505C94.461 14.8881 94.1133 13.6356 93.4179 12.693C92.7225 11.7504 91.821 11.0014 90.7264 10.472C89.6317 9.94261 88.4212 9.58106 87.0947 9.40028C85.7683 9.21951 84.4547 9.12912 83.1669 9.12912C81.7375 9.12912 80.3209 9.27116 78.9171 9.55523C77.5134 9.83931 76.2385 10.3171 75.1181 10.9756C73.9848 11.6341 73.0576 12.5251 72.3364 13.6227C72.2978 13.6743 72.272 13.7389 72.2463 13.7905V17.7547H78.1573C78.2861 16.3601 78.7497 15.3658 79.5482 14.759C80.3466 14.165 81.4413 13.868 82.8321 13.868C83.4631 13.868 84.0555 13.9067 84.5964 13.9971C85.1502 14.0746 85.6266 14.2425 86.0387 14.5007C86.4508 14.746 86.7857 15.0947 87.0304 15.5466C87.275 15.9986 87.4038 16.6054 87.4038 17.3673C87.4296 18.1033 87.2235 18.6585 86.7599 19.033L86.7342 19.0201ZM87.3781 25.6184C87.3781 26.0186 87.3394 26.5481 87.2493 27.2195C87.172 27.891 86.9402 28.5366 86.5796 29.1951C86.219 29.8407 85.6524 30.396 84.8926 30.8608C84.1328 31.3257 83.051 31.5581 81.6602 31.5581C81.0935 31.5581 80.5527 31.5065 80.0247 31.4032C79.4967 31.2999 79.0331 31.132 78.6338 30.8737C78.2346 30.6284 77.9255 30.2798 77.6937 29.8537C77.4619 29.4275 77.346 28.8852 77.346 28.2525C77.346 27.594 77.4619 27.0387 77.6937 26.6126C77.9255 26.1865 78.2346 25.825 78.6081 25.5409C78.9944 25.2568 79.4323 25.0373 79.9474 24.8694C80.4625 24.7016 80.9776 24.5724 81.5185 24.4691C82.0852 24.3659 82.6518 24.2884 83.2056 24.2238C83.7593 24.1592 84.3131 24.0689 84.8282 23.9785C85.3433 23.8752 85.8198 23.759 86.2705 23.604C86.7213 23.4491 87.0947 23.2425 87.3909 22.9842V25.6313L87.3781 25.6184Z" fill="white"/>
<path d="M49.4262 65.6083V52.1923C49.4262 50.6298 49.0785 49.3773 48.3831 48.4347C47.6877 47.4921 46.7862 46.7432 45.6916 46.2138C44.5969 45.6844 43.3864 45.3228 42.06 45.142C40.7335 44.9613 39.4199 44.8709 38.1321 44.8709C36.7027 44.8709 35.2861 45.0129 33.8824 45.297C32.4786 45.5811 31.2037 46.0588 30.0833 46.7174C28.95 47.3759 28.0228 48.2669 27.3017 49.3644C27.263 49.4161 27.2373 49.4806 27.2115 49.5323V53.4964H33.1226C33.2513 52.1019 33.7149 51.1076 34.5134 50.5007C35.3118 49.9067 36.4065 49.6098 37.7973 49.6098C38.4283 49.6098 39.0207 49.6485 39.5616 49.7389C40.1154 49.8164 40.5919 49.9842 41.004 50.2425C41.4161 50.4878 41.7509 50.8364 41.9956 51.2884C42.2403 51.7403 42.369 52.3472 42.369 53.109C42.3948 53.8451 42.1887 54.4003 41.7251 54.7748C41.2615 55.1621 40.6305 55.4462 39.832 55.6399C39.0336 55.8465 38.1193 55.9885 37.1019 56.0918C36.0716 56.1951 35.0285 56.3243 33.9725 56.4921C32.9165 56.66 31.8605 56.8795 30.8174 57.1636C29.7742 57.4476 28.847 57.8737 28.0357 58.4419C27.2244 59.01 26.5547 59.759 26.0525 60.7145C25.5373 61.6571 25.2798 62.8709 25.2798 64.33C25.2798 65.66 25.4987 66.8092 25.9494 67.7647C26.4002 68.7331 27.0183 69.5208 27.8168 70.1535C28.6152 70.7862 29.5424 71.2511 30.5984 71.5481C31.6544 71.8451 32.8006 72 34.024 72C35.6209 72 37.1792 71.7676 38.6988 71.3027C40.2184 70.8379 41.5448 70.0244 42.6781 68.8623C42.7167 69.3013 42.7683 69.7145 42.8584 70.1277C42.9357 70.5409 43.0516 70.9541 43.1804 71.3544H50.3406C50.0058 70.825 49.7739 70.0244 49.6452 68.9656C49.5164 67.9067 49.452 66.7834 49.452 65.6212L49.4262 65.6083ZM42.369 61.373C42.369 61.7733 42.3304 62.3027 42.2403 62.9742C42.163 63.6456 41.9312 64.2913 41.5706 64.9498C41.21 65.6083 40.6434 66.1507 39.8836 66.6155C39.1238 67.0803 38.042 67.3128 36.6512 67.3128C36.0845 67.3128 35.5436 67.2611 35.0156 67.1578C34.4876 67.0545 34.024 66.8867 33.6248 66.6284C33.2256 66.3831 32.9165 66.0344 32.6847 65.6083C32.4529 65.1822 32.337 64.6399 32.337 64.0072C32.337 63.3486 32.4529 62.7934 32.6847 62.3673C32.9165 61.9412 33.2256 61.5796 33.599 61.2956C33.9725 61.0115 34.4232 60.792 34.9384 60.6241C35.4535 60.4562 35.9686 60.3271 36.5095 60.2238C37.0761 60.1205 37.6428 60.043 38.1965 59.9785C38.7632 59.9139 39.304 59.8235 39.8192 59.7331C40.3343 59.6298 40.8108 59.5136 41.2615 59.3587C41.7123 59.2037 42.0857 58.9971 42.3819 58.7389V61.3859L42.369 61.373Z" fill="white"/>
<path d="M53.6502 25.2697C53.6502 23.0488 53.1093 21.1377 52.0404 19.5624C50.9587 17.9871 49.336 16.8766 47.1468 16.2439C48.7436 15.4821 49.9413 14.5007 50.7526 13.2999C51.5639 12.099 51.976 10.6141 51.976 8.81923C51.976 7.15351 51.7056 5.75897 51.1518 4.63558C50.5981 3.49928 49.8383 2.59541 48.8338 1.92396C47.8422 1.2396 46.6445 0.748924 45.2537 0.451937C43.8628 0.15495 42.3175 0 40.6304 0H25.4729V35.5997H41.1198C42.7167 35.5997 44.2621 35.406 45.7688 35.0057C47.2755 34.6055 48.6149 33.9857 49.7996 33.1593C50.9715 32.3329 51.9117 31.2611 52.6071 29.944C53.3025 28.627 53.6502 27.0775 53.6502 25.2826V25.2697ZM33.277 6.08178H39.0335C39.729 6.08178 40.3986 6.14634 41.0425 6.26255C41.6864 6.37877 42.266 6.58537 42.7553 6.88235C43.2576 7.17934 43.6439 7.59254 43.953 8.13486C44.2621 8.67719 44.4037 9.34864 44.4037 10.175C44.4037 11.6729 43.953 12.7446 43.0644 13.4161C42.1629 14.0746 41.0297 14.4103 39.6388 14.4103H33.277V6.08178ZM45.3696 27.1162C45.0605 27.7102 44.6355 28.1879 44.0946 28.5366C43.5666 28.8852 42.9485 29.1306 42.2531 29.2855C41.5577 29.4405 40.8236 29.505 40.0638 29.505H33.2642V19.7303H40.2183C41.9054 19.7303 43.2704 20.1176 44.3007 20.9053C45.3309 21.6801 45.8461 22.9971 45.8461 24.8178C45.8461 25.7475 45.6915 26.5093 45.3696 27.1162Z" fill="white"/>
<path d="M62.5877 23.9785C62.5877 22.8164 62.7036 21.7317 62.9354 20.7374C63.1672 19.7432 63.5536 18.8651 64.1073 18.1162C64.6482 17.3673 65.3694 16.7733 66.2709 16.3472C67.1594 15.9082 68.2541 15.7016 69.5548 15.7016C69.9798 15.7016 70.4305 15.7274 70.8941 15.779C71.3577 15.8307 71.7569 15.8823 72.0918 15.9598V9.37446C71.5251 9.20659 71.01 9.12912 70.5464 9.12912C69.6578 9.12912 68.795 9.25824 67.9579 9.52941C67.1337 9.80057 66.3481 10.175 65.627 10.6528C64.8929 11.1306 64.249 11.7116 63.6824 12.396C63.1157 13.0803 62.665 13.8164 62.343 14.6169H62.24V9.82639H55.5305V35.5997H62.5877V23.9914V23.9785Z" fill="white"/>
<defs>
<clipPath id="clip0_1_1389">
<rect width="172" height="72" fill="white"/>
</clipPath>
</defs>
</svg>
